<mxfile host="app.diagrams.net" modified="2023-04-02T09:03:25.823Z" agent="Mozilla/5.0 (Macintosh; Intel Mac OS X 10_15_7) AppleWebKit/537.36 (KHTML, like Gecko) Chrome/111.0.0.0 Safari/537.36" etag="ugkhN4vin1X9tNFxAL4p" version="21.1.2" type="github">
  <diagram name="Page-1" id="13e1069c-82ec-6db2-03f1-153e76fe0fe0">
    <mxGraphModel dx="2294" dy="690" grid="1" gridSize="10" guides="1" tooltips="1" connect="1" arrows="1" fold="1" page="1" pageScale="1" pageWidth="1100" pageHeight="850" background="none" math="0" shadow="0">
      <root>
        <mxCell id="0" />
        <mxCell id="1" parent="0" />
        <mxCell id="7baba1c4bc27f4b0-2" value="AA" style="shape=umlLifeline;perimeter=lifelinePerimeter;whiteSpace=wrap;html=1;container=1;collapsible=0;recursiveResize=0;outlineConnect=0;rounded=1;shadow=0;comic=0;labelBackgroundColor=none;strokeWidth=1;fontFamily=Verdana;fontSize=12;align=center;movable=1;resizable=1;rotatable=1;deletable=1;editable=1;locked=0;connectable=1;" parent="1" vertex="1">
          <mxGeometry x="240" y="80" width="100" height="680" as="geometry" />
        </mxCell>
        <mxCell id="hELIXIyNJCmHraDmD20v-15" value="" style="html=1;points=[];perimeter=orthogonalPerimeter;rounded=0;shadow=0;comic=0;labelBackgroundColor=none;strokeWidth=1;fontFamily=Verdana;fontSize=12;align=center;" vertex="1" parent="7baba1c4bc27f4b0-2">
          <mxGeometry x="45" y="160" width="10" height="40" as="geometry" />
        </mxCell>
        <mxCell id="hELIXIyNJCmHraDmD20v-23" value="" style="html=1;points=[];perimeter=orthogonalPerimeter;rounded=0;shadow=0;comic=0;labelBackgroundColor=none;strokeWidth=1;fontFamily=Verdana;fontSize=12;align=center;" vertex="1" parent="7baba1c4bc27f4b0-2">
          <mxGeometry x="45" y="160" width="10" height="160" as="geometry" />
        </mxCell>
        <mxCell id="hELIXIyNJCmHraDmD20v-35" value="" style="endArrow=classic;html=1;rounded=0;edgeStyle=orthogonalEdgeStyle;curved=1;" edge="1" parent="7baba1c4bc27f4b0-2">
          <mxGeometry width="50" height="50" relative="1" as="geometry">
            <mxPoint x="55" y="160" as="sourcePoint" />
            <mxPoint x="55" y="190" as="targetPoint" />
            <Array as="points">
              <mxPoint x="70" y="160" />
              <mxPoint x="70" y="190" />
            </Array>
          </mxGeometry>
        </mxCell>
        <mxCell id="hELIXIyNJCmHraDmD20v-19" value="" style="endArrow=none;dashed=1;html=1;dashPattern=1 3;strokeWidth=2;rounded=0;" edge="1" parent="7baba1c4bc27f4b0-2">
          <mxGeometry width="50" height="50" relative="1" as="geometry">
            <mxPoint x="-265" y="210" as="sourcePoint" />
            <mxPoint x="885" y="210" as="targetPoint" />
          </mxGeometry>
        </mxCell>
        <mxCell id="hELIXIyNJCmHraDmD20v-36" value="" style="endArrow=classic;html=1;rounded=0;edgeStyle=orthogonalEdgeStyle;curved=1;" edge="1" parent="7baba1c4bc27f4b0-2">
          <mxGeometry width="50" height="50" relative="1" as="geometry">
            <mxPoint x="55" y="230" as="sourcePoint" />
            <mxPoint x="55" y="260" as="targetPoint" />
            <Array as="points">
              <mxPoint x="70" y="230" />
              <mxPoint x="70" y="260" />
            </Array>
          </mxGeometry>
        </mxCell>
        <mxCell id="hELIXIyNJCmHraDmD20v-25" value="AA.UpdateAttr" style="text;strokeColor=none;align=center;fillColor=none;html=1;verticalAlign=middle;whiteSpace=wrap;rounded=0;" vertex="1" parent="7baba1c4bc27f4b0-2">
          <mxGeometry x="80" y="230" width="60" height="30" as="geometry" />
        </mxCell>
        <mxCell id="hELIXIyNJCmHraDmD20v-18" value="AA.SetUp" style="text;strokeColor=none;align=center;fillColor=none;html=1;verticalAlign=middle;whiteSpace=wrap;rounded=0;" vertex="1" parent="7baba1c4bc27f4b0-2">
          <mxGeometry x="70" y="160" width="60" height="30" as="geometry" />
        </mxCell>
        <mxCell id="hELIXIyNJCmHraDmD20v-37" value="" style="endArrow=classic;html=1;rounded=0;edgeStyle=orthogonalEdgeStyle;curved=1;" edge="1" parent="7baba1c4bc27f4b0-2">
          <mxGeometry width="50" height="50" relative="1" as="geometry">
            <mxPoint x="55" y="275" as="sourcePoint" />
            <mxPoint x="55" y="305" as="targetPoint" />
            <Array as="points">
              <mxPoint x="70" y="275" />
              <mxPoint x="70" y="305" />
            </Array>
          </mxGeometry>
        </mxCell>
        <mxCell id="hELIXIyNJCmHraDmD20v-28" value="" style="endArrow=classic;html=1;rounded=0;exitX=0.134;exitY=0.906;exitDx=0;exitDy=0;exitPerimeter=0;" edge="1" parent="7baba1c4bc27f4b0-2">
          <mxGeometry width="50" height="50" relative="1" as="geometry">
            <mxPoint x="45" y="320" as="sourcePoint" />
            <mxPoint x="-85" y="320.22" as="targetPoint" />
          </mxGeometry>
        </mxCell>
        <mxCell id="hELIXIyNJCmHraDmD20v-29" value="USK" style="edgeLabel;html=1;align=center;verticalAlign=middle;resizable=0;points=[];" vertex="1" connectable="0" parent="hELIXIyNJCmHraDmD20v-28">
          <mxGeometry x="0.1025" y="-1" relative="1" as="geometry">
            <mxPoint as="offset" />
          </mxGeometry>
        </mxCell>
        <mxCell id="hELIXIyNJCmHraDmD20v-74" value="" style="endArrow=none;dashed=1;html=1;rounded=0;labelBackgroundColor=default;strokeColor=default;fontFamily=Helvetica;fontSize=11;fontColor=default;shape=connector;curved=1;" edge="1" parent="7baba1c4bc27f4b0-2">
          <mxGeometry width="50" height="50" relative="1" as="geometry">
            <mxPoint x="-290" y="520" as="sourcePoint" />
            <mxPoint x="900" y="520" as="targetPoint" />
          </mxGeometry>
        </mxCell>
        <mxCell id="7baba1c4bc27f4b0-3" value="DU" style="shape=umlLifeline;perimeter=lifelinePerimeter;whiteSpace=wrap;html=1;container=1;collapsible=0;recursiveResize=0;outlineConnect=0;rounded=1;shadow=0;comic=0;labelBackgroundColor=none;strokeWidth=1;fontFamily=Verdana;fontSize=12;align=center;" parent="1" vertex="1">
          <mxGeometry x="400" y="80" width="100" height="680" as="geometry" />
        </mxCell>
        <mxCell id="hELIXIyNJCmHraDmD20v-33" value="" style="endArrow=none;dashed=1;html=1;dashPattern=1 3;strokeWidth=2;rounded=0;" edge="1" parent="7baba1c4bc27f4b0-3">
          <mxGeometry width="50" height="50" relative="1" as="geometry">
            <mxPoint x="-440" y="390" as="sourcePoint" />
            <mxPoint x="740" y="390" as="targetPoint" />
          </mxGeometry>
        </mxCell>
        <mxCell id="hELIXIyNJCmHraDmD20v-71" value="" style="endArrow=classic;html=1;rounded=0;edgeStyle=orthogonalEdgeStyle;curved=1;" edge="1" parent="7baba1c4bc27f4b0-3">
          <mxGeometry width="50" height="50" relative="1" as="geometry">
            <mxPoint x="56" y="590" as="sourcePoint" />
            <mxPoint x="56" y="620" as="targetPoint" />
            <Array as="points">
              <mxPoint x="71" y="590" />
              <mxPoint x="71" y="620" />
            </Array>
          </mxGeometry>
        </mxCell>
        <mxCell id="hELIXIyNJCmHraDmD20v-90" value="" style="endArrow=classic;html=1;rounded=0;edgeStyle=orthogonalEdgeStyle;curved=1;" edge="1" parent="7baba1c4bc27f4b0-3">
          <mxGeometry width="50" height="50" relative="1" as="geometry">
            <mxPoint x="56" y="640" as="sourcePoint" />
            <mxPoint x="56" y="670" as="targetPoint" />
            <Array as="points">
              <mxPoint x="71" y="640" />
              <mxPoint x="71" y="670" />
            </Array>
          </mxGeometry>
        </mxCell>
        <mxCell id="hELIXIyNJCmHraDmD20v-91" value="&lt;font face=&quot;Times New Roman Italic&quot;&gt;verify&lt;/font&gt;" style="text;strokeColor=none;align=center;fillColor=none;html=1;verticalAlign=middle;whiteSpace=wrap;rounded=0;fontSize=11;fontFamily=Helvetica;fontColor=default;" vertex="1" parent="7baba1c4bc27f4b0-3">
          <mxGeometry x="60" y="640" width="60" height="30" as="geometry" />
        </mxCell>
        <mxCell id="7baba1c4bc27f4b0-4" value="FN1" style="shape=umlLifeline;perimeter=lifelinePerimeter;whiteSpace=wrap;html=1;container=1;collapsible=0;recursiveResize=0;outlineConnect=0;rounded=1;shadow=0;comic=0;labelBackgroundColor=none;strokeWidth=1;fontFamily=Verdana;fontSize=12;align=center;" parent="1" vertex="1">
          <mxGeometry x="540" y="80" width="100" height="680" as="geometry" />
        </mxCell>
        <mxCell id="hELIXIyNJCmHraDmD20v-66" value="" style="html=1;points=[];perimeter=orthogonalPerimeter;rounded=0;shadow=0;comic=0;labelBackgroundColor=none;strokeWidth=1;fontFamily=Verdana;fontSize=12;align=center;" vertex="1" parent="7baba1c4bc27f4b0-4">
          <mxGeometry x="45" y="528" width="10" height="52" as="geometry" />
        </mxCell>
        <mxCell id="hELIXIyNJCmHraDmD20v-67" value="" style="endArrow=classic;html=1;rounded=0;edgeStyle=orthogonalEdgeStyle;curved=1;" edge="1" parent="7baba1c4bc27f4b0-4">
          <mxGeometry width="50" height="50" relative="1" as="geometry">
            <mxPoint x="56" y="540" as="sourcePoint" />
            <mxPoint x="56" y="570" as="targetPoint" />
            <Array as="points">
              <mxPoint x="71" y="540" />
              <mxPoint x="71" y="570" />
            </Array>
          </mxGeometry>
        </mxCell>
        <mxCell id="7baba1c4bc27f4b0-5" value="CSP" style="shape=umlLifeline;perimeter=lifelinePerimeter;whiteSpace=wrap;html=1;container=1;collapsible=0;recursiveResize=0;outlineConnect=0;rounded=1;shadow=0;comic=0;labelBackgroundColor=none;strokeWidth=1;fontFamily=Verdana;fontSize=12;align=center;" parent="1" vertex="1">
          <mxGeometry x="680" y="80" width="100" height="680" as="geometry" />
        </mxCell>
        <mxCell id="7baba1c4bc27f4b0-6" value="FN2" style="shape=umlLifeline;perimeter=lifelinePerimeter;whiteSpace=wrap;html=1;container=1;collapsible=0;recursiveResize=0;outlineConnect=0;rounded=1;shadow=0;comic=0;labelBackgroundColor=none;strokeWidth=1;fontFamily=Verdana;fontSize=12;align=center;" parent="1" vertex="1">
          <mxGeometry x="820" y="80" width="100" height="680" as="geometry" />
        </mxCell>
        <mxCell id="hELIXIyNJCmHraDmD20v-52" value="" style="html=1;points=[];perimeter=orthogonalPerimeter;rounded=0;shadow=0;comic=0;labelBackgroundColor=none;strokeWidth=1;fontFamily=Verdana;fontSize=12;align=center;" vertex="1" parent="7baba1c4bc27f4b0-6">
          <mxGeometry x="45" y="400" width="10" height="60" as="geometry" />
        </mxCell>
        <mxCell id="hELIXIyNJCmHraDmD20v-53" value="" style="endArrow=classic;html=1;rounded=0;edgeStyle=orthogonalEdgeStyle;curved=1;" edge="1" parent="7baba1c4bc27f4b0-6">
          <mxGeometry width="50" height="50" relative="1" as="geometry">
            <mxPoint x="56" y="410" as="sourcePoint" />
            <mxPoint x="56" y="440" as="targetPoint" />
            <Array as="points">
              <mxPoint x="71" y="410" />
              <mxPoint x="71" y="440" />
            </Array>
          </mxGeometry>
        </mxCell>
        <mxCell id="7baba1c4bc27f4b0-7" value="DO" style="shape=umlLifeline;perimeter=lifelinePerimeter;whiteSpace=wrap;html=1;container=1;collapsible=0;recursiveResize=0;outlineConnect=0;rounded=1;shadow=0;comic=0;labelBackgroundColor=none;strokeWidth=1;fontFamily=Verdana;fontSize=12;align=center;" parent="1" vertex="1">
          <mxGeometry x="960" y="80" width="100" height="680" as="geometry" />
        </mxCell>
        <mxCell id="hELIXIyNJCmHraDmD20v-34" value="" style="html=1;points=[];perimeter=orthogonalPerimeter;rounded=0;shadow=0;comic=0;labelBackgroundColor=none;strokeWidth=1;fontFamily=Verdana;fontSize=12;align=center;" vertex="1" parent="7baba1c4bc27f4b0-7">
          <mxGeometry x="45" y="460" width="10" height="50" as="geometry" />
        </mxCell>
        <mxCell id="hELIXIyNJCmHraDmD20v-48" value="" style="endArrow=classic;html=1;rounded=0;edgeStyle=orthogonalEdgeStyle;curved=1;" edge="1" parent="7baba1c4bc27f4b0-7">
          <mxGeometry width="50" height="50" relative="1" as="geometry">
            <mxPoint x="55" y="465" as="sourcePoint" />
            <mxPoint x="55" y="495" as="targetPoint" />
            <Array as="points">
              <mxPoint x="70" y="465" />
              <mxPoint x="70" y="495" />
            </Array>
          </mxGeometry>
        </mxCell>
        <mxCell id="hELIXIyNJCmHraDmD20v-58" value="DO.Encrypt" style="text;strokeColor=none;align=center;fillColor=none;html=1;verticalAlign=middle;whiteSpace=wrap;rounded=0;fontSize=11;fontFamily=Helvetica;fontColor=default;" vertex="1" parent="7baba1c4bc27f4b0-7">
          <mxGeometry x="76" y="465" width="60" height="30" as="geometry" />
        </mxCell>
        <mxCell id="7baba1c4bc27f4b0-8" value="CA" style="shape=umlLifeline;perimeter=lifelinePerimeter;whiteSpace=wrap;html=1;container=1;collapsible=0;recursiveResize=0;outlineConnect=0;rounded=1;shadow=0;comic=0;labelBackgroundColor=none;strokeWidth=1;fontFamily=Verdana;fontSize=12;align=center;" parent="1" vertex="1">
          <mxGeometry x="100" y="80" width="100" height="680" as="geometry" />
        </mxCell>
        <mxCell id="7baba1c4bc27f4b0-9" value="" style="html=1;points=[];perimeter=orthogonalPerimeter;rounded=0;shadow=0;comic=0;labelBackgroundColor=none;strokeWidth=1;fontFamily=Verdana;fontSize=12;align=center;" parent="7baba1c4bc27f4b0-8" vertex="1">
          <mxGeometry x="45" y="70" width="10" height="70" as="geometry" />
        </mxCell>
        <mxCell id="hELIXIyNJCmHraDmD20v-12" value="" style="endArrow=classic;html=1;rounded=0;edgeStyle=orthogonalEdgeStyle;curved=1;" edge="1" parent="7baba1c4bc27f4b0-8">
          <mxGeometry width="50" height="50" relative="1" as="geometry">
            <mxPoint x="55" y="80" as="sourcePoint" />
            <mxPoint x="55" y="110" as="targetPoint" />
            <Array as="points">
              <mxPoint x="70" y="80" />
              <mxPoint x="70" y="110" />
            </Array>
          </mxGeometry>
        </mxCell>
        <mxCell id="hELIXIyNJCmHraDmD20v-38" value="" style="endArrow=classic;html=1;rounded=0;edgeStyle=orthogonalEdgeStyle;curved=1;" edge="1" parent="7baba1c4bc27f4b0-8">
          <mxGeometry width="50" height="50" relative="1" as="geometry">
            <mxPoint x="55" y="330" as="sourcePoint" />
            <mxPoint x="55" y="360" as="targetPoint" />
            <Array as="points">
              <mxPoint x="70" y="330" />
              <mxPoint x="70" y="360" />
            </Array>
          </mxGeometry>
        </mxCell>
        <mxCell id="hELIXIyNJCmHraDmD20v-57" value="" style="html=1;points=[];perimeter=orthogonalPerimeter;rounded=0;shadow=0;comic=0;labelBackgroundColor=none;strokeWidth=1;fontFamily=Verdana;fontSize=12;align=center;" vertex="1" parent="7baba1c4bc27f4b0-8">
          <mxGeometry x="45" y="320" width="10" height="50" as="geometry" />
        </mxCell>
        <mxCell id="hELIXIyNJCmHraDmD20v-8" value="" style="endArrow=classic;html=1;rounded=0;exitX=0.934;exitY=0.267;exitDx=0;exitDy=0;exitPerimeter=0;" edge="1" parent="1" target="7baba1c4bc27f4b0-7">
          <mxGeometry width="50" height="50" relative="1" as="geometry">
            <mxPoint x="155" y="217" as="sourcePoint" />
            <mxPoint x="869.5" y="217" as="targetPoint" />
          </mxGeometry>
        </mxCell>
        <mxCell id="hELIXIyNJCmHraDmD20v-14" value="公共参数" style="edgeLabel;html=1;align=center;verticalAlign=middle;resizable=0;points=[];" vertex="1" connectable="0" parent="hELIXIyNJCmHraDmD20v-8">
          <mxGeometry x="-0.8647" relative="1" as="geometry">
            <mxPoint as="offset" />
          </mxGeometry>
        </mxCell>
        <mxCell id="hELIXIyNJCmHraDmD20v-22" value="属性集" style="endArrow=classic;html=1;rounded=0;" edge="1" parent="1" source="7baba1c4bc27f4b0-3">
          <mxGeometry width="50" height="50" relative="1" as="geometry">
            <mxPoint x="445" y="301" as="sourcePoint" />
            <mxPoint x="295" y="301" as="targetPoint" />
          </mxGeometry>
        </mxCell>
        <mxCell id="hELIXIyNJCmHraDmD20v-27" value="AA.KenGen" style="text;strokeColor=none;align=center;fillColor=none;html=1;verticalAlign=middle;whiteSpace=wrap;rounded=0;" vertex="1" parent="1">
          <mxGeometry x="320" y="355" width="60" height="30" as="geometry" />
        </mxCell>
        <mxCell id="hELIXIyNJCmHraDmD20v-30" value="" style="endArrow=classic;html=1;rounded=0;exitX=1.134;exitY=0.781;exitDx=0;exitDy=0;exitPerimeter=0;" edge="1" parent="1" target="7baba1c4bc27f4b0-3">
          <mxGeometry width="50" height="50" relative="1" as="geometry">
            <mxPoint x="156.34000000000015" y="450.4000000000001" as="sourcePoint" />
            <mxPoint x="445" y="450" as="targetPoint" />
          </mxGeometry>
        </mxCell>
        <mxCell id="hELIXIyNJCmHraDmD20v-31" value="&amp;nbsp;SK, SK&#39;&amp;nbsp;" style="edgeLabel;html=1;align=center;verticalAlign=middle;resizable=0;points=[];" vertex="1" connectable="0" parent="hELIXIyNJCmHraDmD20v-30">
          <mxGeometry x="-0.134" y="-2" relative="1" as="geometry">
            <mxPoint as="offset" />
          </mxGeometry>
        </mxCell>
        <mxCell id="hELIXIyNJCmHraDmD20v-13" value="CA.SetUp" style="text;strokeColor=none;align=center;fillColor=none;html=1;verticalAlign=middle;whiteSpace=wrap;rounded=0;" vertex="1" parent="1">
          <mxGeometry x="170" y="160" width="60" height="30" as="geometry" />
        </mxCell>
        <mxCell id="hELIXIyNJCmHraDmD20v-54" value="Fog.Encrypt" style="text;strokeColor=none;align=center;fillColor=none;html=1;verticalAlign=middle;whiteSpace=wrap;rounded=0;fontSize=11;fontFamily=Helvetica;fontColor=default;" vertex="1" parent="1">
          <mxGeometry x="900" y="490" width="60" height="30" as="geometry" />
        </mxCell>
        <mxCell id="hELIXIyNJCmHraDmD20v-56" value="" style="endArrow=classic;html=1;rounded=0;labelBackgroundColor=default;strokeColor=default;fontFamily=Helvetica;fontSize=11;fontColor=default;shape=connector;curved=1;" edge="1" parent="1">
          <mxGeometry width="50" height="50" relative="1" as="geometry">
            <mxPoint x="875" y="540" as="sourcePoint" />
            <mxPoint x="1005" y="540" as="targetPoint" />
          </mxGeometry>
        </mxCell>
        <mxCell id="hELIXIyNJCmHraDmD20v-65" value="部分密文" style="edgeLabel;html=1;align=center;verticalAlign=middle;resizable=0;points=[];fontSize=11;fontFamily=Helvetica;fontColor=default;" vertex="1" connectable="0" parent="hELIXIyNJCmHraDmD20v-56">
          <mxGeometry x="-0.0119" y="1" relative="1" as="geometry">
            <mxPoint as="offset" />
          </mxGeometry>
        </mxCell>
        <mxCell id="hELIXIyNJCmHraDmD20v-59" value="" style="endArrow=classic;html=1;rounded=0;labelBackgroundColor=default;strokeColor=default;fontFamily=Helvetica;fontSize=11;fontColor=default;shape=connector;curved=1;exitX=-0.077;exitY=1.009;exitDx=0;exitDy=0;exitPerimeter=0;" edge="1" parent="1" source="hELIXIyNJCmHraDmD20v-34" target="7baba1c4bc27f4b0-5">
          <mxGeometry width="50" height="50" relative="1" as="geometry">
            <mxPoint x="770" y="610" as="sourcePoint" />
            <mxPoint x="736" y="590" as="targetPoint" />
          </mxGeometry>
        </mxCell>
        <mxCell id="hELIXIyNJCmHraDmD20v-63" value="CT" style="edgeLabel;html=1;align=center;verticalAlign=middle;resizable=0;points=[];fontSize=11;fontFamily=Helvetica;fontColor=default;" vertex="1" connectable="0" parent="hELIXIyNJCmHraDmD20v-59">
          <mxGeometry x="-0.3593" relative="1" as="geometry">
            <mxPoint as="offset" />
          </mxGeometry>
        </mxCell>
        <mxCell id="hELIXIyNJCmHraDmD20v-62" value="" style="endArrow=classic;html=1;rounded=0;labelBackgroundColor=default;strokeColor=default;fontFamily=Helvetica;fontSize=11;fontColor=default;shape=connector;curved=1;" edge="1" parent="1">
          <mxGeometry width="50" height="50" relative="1" as="geometry">
            <mxPoint x="729.5" y="608" as="sourcePoint" />
            <mxPoint x="595" y="608" as="targetPoint" />
            <Array as="points">
              <mxPoint x="680" y="608" />
            </Array>
          </mxGeometry>
        </mxCell>
        <mxCell id="hELIXIyNJCmHraDmD20v-64" value="CT" style="edgeLabel;html=1;align=center;verticalAlign=middle;resizable=0;points=[];fontSize=11;fontFamily=Helvetica;fontColor=default;" vertex="1" connectable="0" parent="hELIXIyNJCmHraDmD20v-62">
          <mxGeometry x="0.0182" y="1" relative="1" as="geometry">
            <mxPoint as="offset" />
          </mxGeometry>
        </mxCell>
        <mxCell id="hELIXIyNJCmHraDmD20v-68" value="Fog.Decrypt" style="text;strokeColor=none;align=center;fillColor=none;html=1;verticalAlign=middle;whiteSpace=wrap;rounded=0;fontSize=11;fontFamily=Helvetica;fontColor=default;" vertex="1" parent="1">
          <mxGeometry x="617" y="620" width="60" height="30" as="geometry" />
        </mxCell>
        <mxCell id="hELIXIyNJCmHraDmD20v-70" value="" style="html=1;points=[];perimeter=orthogonalPerimeter;rounded=0;shadow=0;comic=0;labelBackgroundColor=none;strokeWidth=1;fontFamily=Verdana;fontSize=12;align=center;" vertex="1" parent="1">
          <mxGeometry x="445" y="659" width="10" height="101" as="geometry" />
        </mxCell>
        <mxCell id="hELIXIyNJCmHraDmD20v-69" value="" style="endArrow=classic;html=1;rounded=0;labelBackgroundColor=default;strokeColor=default;fontFamily=Helvetica;fontSize=11;fontColor=default;shape=connector;curved=1;exitX=0.023;exitY=0.983;exitDx=0;exitDy=0;exitPerimeter=0;entryX=1.123;entryY=0.019;entryDx=0;entryDy=0;entryPerimeter=0;" edge="1" parent="1" source="hELIXIyNJCmHraDmD20v-66" target="hELIXIyNJCmHraDmD20v-70">
          <mxGeometry width="50" height="50" relative="1" as="geometry">
            <mxPoint x="460" y="690" as="sourcePoint" />
            <mxPoint x="490" y="680" as="targetPoint" />
          </mxGeometry>
        </mxCell>
        <mxCell id="hELIXIyNJCmHraDmD20v-73" value="部分解密密文" style="edgeLabel;html=1;align=center;verticalAlign=middle;resizable=0;points=[];fontSize=11;fontFamily=Helvetica;fontColor=default;" vertex="1" connectable="0" parent="hELIXIyNJCmHraDmD20v-69">
          <mxGeometry x="0.0077" y="-1" relative="1" as="geometry">
            <mxPoint as="offset" />
          </mxGeometry>
        </mxCell>
        <mxCell id="hELIXIyNJCmHraDmD20v-72" value="DU.Decrypt" style="text;strokeColor=none;align=center;fillColor=none;html=1;verticalAlign=middle;whiteSpace=wrap;rounded=0;fontSize=11;fontFamily=Helvetica;fontColor=default;" vertex="1" parent="1">
          <mxGeometry x="476" y="669.5" width="60" height="30" as="geometry" />
        </mxCell>
        <mxCell id="hELIXIyNJCmHraDmD20v-88" value="" style="strokeWidth=1;html=1;shape=mxgraph.flowchart.annotation_2;align=left;labelPosition=right;pointerEvents=1;fontFamily=Helvetica;fontSize=11;fontColor=default;" vertex="1" parent="1">
          <mxGeometry x="50.00000000000001" y="602" width="50.00000000000001" height="158" as="geometry" />
        </mxCell>
        <mxCell id="hELIXIyNJCmHraDmD20v-89" value="&lt;font style=&quot;font-size: 16px;&quot;&gt;&lt;b&gt;Decrypt&amp;nbsp;&lt;/b&gt;&lt;/font&gt;" style="text;strokeColor=none;align=center;fillColor=none;html=1;verticalAlign=middle;whiteSpace=wrap;rounded=0;fontSize=11;fontFamily=Helvetica;fontColor=default;" vertex="1" parent="1">
          <mxGeometry x="-10" y="667.0588235294117" width="60" height="27.882352941176467" as="geometry" />
        </mxCell>
        <mxCell id="hELIXIyNJCmHraDmD20v-83" value="" style="strokeWidth=1;html=1;shape=mxgraph.flowchart.annotation_2;align=left;labelPosition=right;pointerEvents=1;fontFamily=Helvetica;fontSize=11;fontColor=default;" vertex="1" parent="1">
          <mxGeometry x="50.00000000000001" y="470" width="50.00000000000001" height="130" as="geometry" />
        </mxCell>
        <mxCell id="hELIXIyNJCmHraDmD20v-84" value="&lt;font style=&quot;font-size: 16px;&quot;&gt;&lt;b&gt;Encrypt&amp;nbsp;&amp;nbsp;&lt;/b&gt;&lt;/font&gt;" style="text;strokeColor=none;align=center;fillColor=none;html=1;verticalAlign=middle;whiteSpace=wrap;rounded=0;fontSize=11;fontFamily=Helvetica;fontColor=default;" vertex="1" parent="1">
          <mxGeometry x="-10" y="523.5294117647059" width="60" height="22.941176470588232" as="geometry" />
        </mxCell>
        <mxCell id="hELIXIyNJCmHraDmD20v-80" value="" style="strokeWidth=1;html=1;shape=mxgraph.flowchart.annotation_2;align=left;labelPosition=right;pointerEvents=1;fontFamily=Helvetica;fontSize=11;fontColor=default;" vertex="1" parent="1">
          <mxGeometry x="50.00000000000001" y="295" width="50.00000000000001" height="170" as="geometry" />
        </mxCell>
        <mxCell id="hELIXIyNJCmHraDmD20v-81" value="&lt;font style=&quot;font-size: 16px;&quot;&gt;&lt;b&gt;KeyGen&amp;nbsp;&amp;nbsp;&lt;/b&gt;&lt;/font&gt;" style="text;strokeColor=none;align=center;fillColor=none;html=1;verticalAlign=middle;whiteSpace=wrap;rounded=0;fontSize=11;fontFamily=Helvetica;fontColor=default;" vertex="1" parent="1">
          <mxGeometry x="-10" y="365" width="60" height="30" as="geometry" />
        </mxCell>
        <mxCell id="hELIXIyNJCmHraDmD20v-76" value="" style="strokeWidth=1;html=1;shape=mxgraph.flowchart.annotation_2;align=left;labelPosition=right;pointerEvents=1;fontFamily=Helvetica;fontSize=11;fontColor=default;" vertex="1" parent="1">
          <mxGeometry x="50" y="120" width="50" height="170" as="geometry" />
        </mxCell>
        <mxCell id="hELIXIyNJCmHraDmD20v-77" value="&lt;font style=&quot;font-size: 16px;&quot;&gt;&lt;b&gt;Setup&lt;/b&gt;&lt;/font&gt;" style="text;strokeColor=none;align=center;fillColor=none;html=1;verticalAlign=middle;whiteSpace=wrap;rounded=0;fontSize=11;fontFamily=Helvetica;fontColor=default;" vertex="1" parent="1">
          <mxGeometry x="-10" y="190" width="60" height="30" as="geometry" />
        </mxCell>
      </root>
    </mxGraphModel>
  </diagram>
</mxfile>
